# xmcd
#
# Track frame offsets: 
#        150
#        14007
#        26615
#        34925
#        47200
#        61590
#        70455
#        84620
#        94575
#        112630
#        126760
#        137817
#
# Disc length: 1981 seconds
#
# Revision: 7
# Processed by: cddbd v1.5.2PL0 Copyright (c) Steve Scherf et al.
# Submitted via: ExactAudioCopyFreeDBPlugin 1.0
#
DISCID=9d07bb0c
DTITLE=Georges Brassens - Vol.03 - Chanson pour l'Auvergnat
DYEAR=2006
DGENRE=Chanson française
TTITLE0=1954 - Chanson pour l'Auvergnat
TTITLE1=1954 - Les sabots d'Hélène
TTITLE2=1956 - Marinette  (j'avais l'air d'un con)
TTITLE3=1954 - Une jolie fleur  (dans une peau d'vache)
TTITLE4=1956 - La légende de la nonne  (poème de Victor Hugo)
TTITLE5=1956 - Colombine  (poème de Paul Verlaine)
TTITLE6=1956 - Auprès de mon arbre
TTITLE7=1954 - Gastibelza  (l'homme à la carabine - poème de Victor Hu
TTITLE7=go)
TTITLE8=1956 - Le testament
TTITLE9=1954 - La prière  (poème de Francis Jammes)
TTITLE10=1956 - Le nombril des femmes d'agents
TTITLE11=1956 - Les croquants
EXTD=L'intégrale 2006
EXTT0=
EXTT1=
EXTT2=
EXTT3=
EXTT4=
EXTT5=
EXTT6=
EXTT7=
EXTT8=
EXTT9=
EXTT10=
EXTT11=
PLAYORDER=
